<svg width="130" height="120" viewBox="0 0 130 120" fill="none" xmlns="http://www.w3.org/2000/svg">
<path d="M108.819 50.7326C107.382 50.734 105.973 51.1016 104.749 51.7953C103.524 52.4891 102.53 53.4815 101.878 54.6633L70.6355 46.9712C71.0229 44.397 70.4882 41.776 69.1128 39.508L85.682 28.2975C87.6161 29.8872 90.2799 30.4859 92.7893 29.8959C95.2994 29.3053 97.3271 27.6024 98.2005 25.3517C99.0739 23.101 98.6793 20.5973 97.1464 18.6699C95.6143 16.7427 93.1448 15.6438 90.5565 15.7381C87.9688 15.8326 85.6009 17.1076 84.2385 19.1406C82.8754 21.1736 82.6962 23.6989 83.7597 25.8786L67.1884 37.0904C64.7597 34.7132 61.3849 33.3538 57.8448 33.327L55.3906 14.0053C57.844 13.2379 59.7229 11.3957 60.4063 9.08945C61.089 6.78391 60.4861 4.31482 58.7973 2.50282C57.1084 0.690135 54.5548 -0.229408 51.9825 0.0493352C49.41 0.327238 47.1562 1.76756 45.967 3.89105C44.778 6.01522 44.8099 8.54568 46.0526 10.6431C47.2946 12.741 49.5849 14.132 52.1638 14.3542L54.6165 33.6759V33.6766C50.6621 34.5853 47.3918 37.1434 45.7733 40.5953L33.1869 37.2363C33.8253 34.1713 32.7429 31.016 30.3106 28.8476C27.8781 26.6794 24.4244 25.7914 21.1279 26.487C17.8315 27.1827 15.1386 29.3679 13.9685 32.2969C12.7983 35.2253 13.3097 38.5011 15.3272 41.0057C17.3446 43.5107 20.5961 44.9057 23.9717 44.7142C27.3465 44.5233 30.389 42.7722 32.0597 40.0582L44.8697 43.4766C44.3808 46.334 45.025 49.2577 46.6833 51.7126C48.3417 54.1667 50.9041 55.9863 53.8987 56.8379L49.1847 81.6214C46.597 81.7091 44.2263 82.9774 42.8582 85.0064C41.4893 87.0347 41.3021 89.5587 42.3583 91.7403C43.4146 93.9226 45.5764 95.4776 48.1264 95.89C50.6765 96.3025 53.2822 95.5184 55.0792 93.7974C56.8761 92.0771 57.6298 89.6449 57.0894 87.308C56.5497 84.9702 54.7875 83.0329 52.3864 82.1391L57.1011 57.3539C57.3115 57.364 57.5226 57.3693 57.7351 57.3693C59.7018 57.3734 61.6431 56.9635 63.4124 56.1707L67.6497 62.1901H67.6504C65.6113 64.0115 64.6942 66.6525 65.2057 69.2287C65.7171 71.8048 67.5895 73.9746 70.196 75.0098C72.8017 76.0458 75.7956 75.8101 78.1744 74.383C80.5533 72.9554 82.0011 70.5245 82.0338 67.9056C82.0657 65.2874 80.6772 62.827 78.334 61.3498C75.9916 59.8733 73.0034 59.5752 70.373 60.5563L66.1342 54.5309C67.7447 53.274 69.0018 51.6775 69.7984 49.8756L101.037 57.5678C101.031 57.6883 101.027 57.8096 101.027 57.9314H101.028C101.028 59.8392 101.848 61.6694 103.31 63.0187C104.771 64.3681 106.754 65.1261 108.821 65.1268C110.888 65.1268 112.87 64.3688 114.332 63.0194C115.794 61.6701 116.615 59.8406 116.615 57.9321C116.615 56.0243 115.794 54.1941 114.332 52.8455C112.87 51.4961 110.888 50.7381 108.82 50.7388L108.819 50.7326ZM90.8659 18.7389C92.0709 18.7389 93.2265 19.1802 94.0782 19.9671C94.9306 20.7532 95.4094 21.82 95.4094 22.9323C95.4094 24.0445 94.9306 25.1106 94.0782 25.8975C93.2266 26.6836 92.0708 27.1256 90.8659 27.1256C89.6617 27.1256 88.506 26.6836 87.6536 25.8975C86.802 25.1106 86.3231 24.0445 86.3231 22.9323C86.3246 21.82 86.8034 20.7546 87.6551 19.9684C88.5067 19.1823 89.6617 18.7396 90.8659 18.7389ZM23.3773 41.7309V41.7302C21.5898 41.7302 19.8757 41.0753 18.6119 39.9081C17.3482 38.7416 16.638 37.1593 16.6387 35.5093C16.6387 33.8599 17.3489 32.2775 18.6127 31.1111C19.8764 29.9446 21.5906 29.289 23.3781 29.2897C25.1656 29.2897 26.8797 29.9453 28.1428 31.1118C29.4065 32.279 30.1167 33.8613 30.116 35.5107C30.1131 37.16 29.4021 38.7411 28.1385 39.9069C26.8755 41.0728 25.1628 41.7284 23.3759 41.7304L23.3773 41.7309ZM54.0128 88.8121C54.0128 89.9243 53.534 90.9904 52.6823 91.7773C51.8299 92.5634 50.6744 93.0054 49.47 93.0054C48.265 93.0054 47.1094 92.5634 46.2577 91.7773C45.4053 90.9904 44.9265 89.9243 44.9265 88.8121C44.9265 87.6998 45.4053 86.633 46.2577 85.8469C47.1094 85.06 48.2651 84.6187 49.47 84.6187C50.6735 84.6201 51.8269 85.0614 52.6786 85.8469C53.5295 86.6323 54.0091 87.6971 54.0112 88.8079L54.0128 88.8121ZM78.8112 67.8223C78.8112 69.1081 78.2577 70.3415 77.2725 71.2509C76.2874 72.1603 74.9511 72.6712 73.5582 72.6712C72.1647 72.6712 70.8284 72.1603 69.8432 71.2509C68.8581 70.3409 68.3053 69.1074 68.3053 67.8217C68.3053 66.5353 68.8588 65.3018 69.8447 64.3931C70.8298 63.4837 72.1661 62.9728 73.5597 62.9734C74.9518 62.9748 76.2875 63.4864 77.2718 64.3951C78.2562 65.3045 78.8097 66.5366 78.8112 67.8223ZM48.3503 7.19321C48.3503 6.0816 48.8284 5.01487 49.6808 4.22801C50.5325 3.44185 51.6882 2.99988 52.8931 2.99988C54.098 2.99988 55.253 3.44184 56.1054 4.22801C56.9571 5.01483 57.4359 6.08149 57.4359 7.19321C57.4359 8.30549 56.9571 9.37224 56.1054 10.1584C55.253 10.9452 54.098 11.3865 52.8931 11.3865C51.6882 11.3859 50.534 10.9439 49.6823 10.1577C48.8306 9.37092 48.3511 8.30544 48.3503 7.19321ZM57.7369 54.3703C55.1441 54.3703 52.658 53.4201 50.8248 51.7286C48.9909 50.0364 47.9607 47.7415 47.9607 45.3489C47.96 42.9556 48.9894 40.6607 50.8226 38.9685C52.6551 37.2757 55.1412 36.3247 57.7339 36.3241C60.3259 36.3241 62.8128 37.2743 64.646 38.9658C66.4792 40.6573 67.5101 42.9522 67.5101 45.3455C67.5087 47.7374 66.4778 50.0317 64.6453 51.7238C62.8135 53.416 60.3282 54.3676 57.7369 54.3703ZM108.821 62.1201C107.616 62.1201 106.461 61.6782 105.608 60.8913C104.757 60.1052 104.278 59.0383 104.278 57.9268C104.278 56.8145 104.757 55.7478 105.608 54.9616C106.461 54.1748 107.616 53.7328 108.821 53.7328C110.026 53.7328 111.181 54.1748 112.033 54.9616C112.885 55.7478 113.363 56.8146 113.363 57.9268C113.362 59.0384 112.883 60.1038 112.031 60.8899C111.18 61.6761 110.026 62.1188 108.821 62.1201Z" fill="white"/>
</svg>
