<svg width="65" height="65" viewBox="0 0 65 65" fill="none" xmlns="http://www.w3.org/2000/svg">
<path d="M33.0816 42.4312C38.9083 42.4312 43.6317 37.7077 43.6317 31.8811C43.6317 26.0544 38.9083 21.3309 33.0816 21.3309C27.2549 21.3309 22.5314 26.0544 22.5314 31.8811C22.5314 37.7077 27.2549 42.4312 33.0816 42.4312Z" fill="#FFB6B6"/>
<path d="M27.0251 43.9913L26.5484 39.1733L36.0664 37.3936L41.6867 51.0778L31.9123 62.3184L24.948 48.6342L27.0251 43.9913Z" fill="#FFB6B6"/>
<path d="M26.3955 41.585L28.4764 42.0552C28.4764 42.0552 26.8406 36.8681 27.3959 36.3729C27.9511 35.8776 29.3117 36.6579 29.3117 36.6579L30.7414 38.2609L32.483 36.4878C32.483 36.4878 34.3737 34.1368 35.114 33.4765C35.8543 32.8162 34.6652 30.3653 34.6652 30.3653C34.6652 30.3653 45.6482 27.4038 41.5614 22.0767C41.5614 22.0767 39.1654 17.9 38.3851 19.2606C37.6048 20.6211 36.6743 18.4603 36.6743 18.4603L33.8332 19.0005C33.8332 19.0005 28.2258 15.6943 22.9037 22.7673C17.5817 29.8403 26.3955 41.585 26.3955 41.585Z" fill="#2F2E41"/>
<path d="M52.9237 57.7853C47.158 62.4599 40.0251 65 32.5 65C25.6286 65 19.0834 62.8814 13.6085 58.9545C13.6182 58.8519 13.628 58.7505 13.6366 58.6491C13.782 57.0607 13.9115 55.5164 13.997 54.2359C14.3281 49.2644 25.9267 45.9509 25.9267 45.9509C25.9267 45.9509 25.9792 46.0034 26.0843 46.095C26.7245 46.6571 29.3233 48.695 33.8806 49.2644C37.9444 49.7727 39.2822 47.362 39.6867 46.2074C39.8088 45.8556 39.8455 45.6198 39.8455 45.6198L51.7752 51.2535C52.5535 52.3653 52.8577 54.7601 52.9176 57.4517C52.92 57.5629 52.9225 57.6729 52.9237 57.7853Z" fill="#6C63FF"/>
<rect x="1" y="1" width="63" height="63" rx="31.5" stroke="white" stroke-width="2"/>
</svg>
